# xmcd CD database file
#
# Track frame offsets:
#	182
#	10232
#	20085
#	31082
#	42350
#	52725
#	63585
#	72787
#	85340
#	97122
#	106285
#
# Disc length: 1555 seconds
#
# Revision: 1
# Processed by: cddbd v1.4PL0 Copyright (c) Steve Scherf et al.
# Submitted via: CDex 1.40Release
#
DISCID=8906110b
DTITLE=Twitty, Conway - Best Of The Early Years
DYEAR=1997
DGENRE=Country
TTITLE0=It's Only Make Believe
TTITLE1=Goin' Home
TTITLE2=Hey Miss Ruby
TTITLE3=Heavenly
TTITLE4=The Story Of My Love
TTITLE5=My One and Only You
TTITLE6=I Vibrate (From My Head to My Feet)
TTITLE7=Danny Boy
TTITLE8=Blueberry Hill
TTITLE9=A Huggin and a Kissin
TTITLE10=You Win Again
EXTD=YEAR: 1997 ID3G: 2
EXTT0=
EXTT1=
EXTT2=
EXTT3=
EXTT4=
EXTT5=
EXTT6=
EXTT7=
EXTT8=
EXTT9=
EXTT10=
PLAYORDER=
